<?xml version="1.0" encoding="UTF-8" standalone="no"?>
<svg
   width="48"
   height="48"
   viewBox="0 0 48 48"
   version="1.1"
   id="svg4"
   sodipodi:docname="amstrad-3.5-2.svg"
   inkscape:version="1.3 (0e150ed6c4, 2023-07-21)"
   xml:space="preserve"
   xmlns:inkscape="http://www.inkscape.org/namespaces/inkscape"
   xmlns:sodipodi="http://sodipodi.sourceforge.net/DTD/sodipodi-0.dtd"
   xmlns="http://www.w3.org/2000/svg"
   xmlns:svg="http://www.w3.org/2000/svg"><defs
     id="defs4" /><sodipodi:namedview
     id="namedview4"
     pagecolor="#ffffff"
     bordercolor="#999999"
     borderopacity="1"
     inkscape:showpageshadow="0"
     inkscape:pageopacity="0"
     inkscape:pagecheckerboard="0"
     inkscape:deskcolor="#d1d1d1"
     inkscape:zoom="17.441968"
     inkscape:cx="73.758881"
     inkscape:cy="35.546449"
     inkscape:window-width="3440"
     inkscape:window-height="1381"
     inkscape:window-x="0"
     inkscape:window-y="27"
     inkscape:window-maximized="1"
     inkscape:current-layer="svg4" /><polygon
     fill="#F44336"
     points="42,42 6,42 6,6 37,6 42,11"
     id="polygon1"
     style="fill:#004fac;fill-opacity:1" /><path
     fill="#fff"
     d="M39,39c0,0.553-0.447,1-1,1H10c-0.553,0-1-0.447-1-1V25c0-0.553,0.447-1,1-1h28c0.553,0,1,0.447,1,1V39z"
     id="path1" /><path
     fill="#ffffff"
     d="m 38.295144,25.939029 c 0,0.06584 -0.431502,0.119055 -0.965328,0.119055 H 10.300624 c -0.5338266,0 -0.9653283,-0.05322 -0.9653283,-0.119055 v -1.666767 c 0,-0.06584 0.4315017,-0.119055 0.9653283,-0.119055 h 27.029192 c 0.533826,0 0.965328,0.05322 0.965328,0.119055 z"
     id="path1-2"
     style="stroke-width:0.339009;fill:#ff0000" /><g
     fill="#CFD8DC"
     id="g3"><rect
       x="13"
       y="31"
       width="22"
       height="2"
       id="rect1" /><rect
       x="13"
       y="27"
       width="22"
       height="2"
       id="rect2" /><rect
       x="13"
       y="35"
       width="22"
       height="2"
       id="rect3" /></g><rect
     x="21.589455"
     y="12.705632"
     fill="#263238"
     width="4"
     height="8"
     id="rect4"
     style="fill:#cccccc" /></svg>
