<?xml version="1.0" encoding="UTF-8" standalone="no"?>
<svg
   clip-rule="evenodd"
   fill-rule="evenodd"
   stroke-linejoin="round"
   stroke-miterlimit="1.414"
   viewBox="0 0 24 24"
   xml:space="preserve"
   version="1.1"
   id="svg2"
   sodipodi:docname="folder-controller.svg"
   inkscape:version="1.3 (0e150ed6c4, 2023-07-21)"
   xmlns:inkscape="http://www.inkscape.org/namespaces/inkscape"
   xmlns:sodipodi="http://sodipodi.sourceforge.net/DTD/sodipodi-0.dtd"
   xmlns="http://www.w3.org/2000/svg"
   xmlns:svg="http://www.w3.org/2000/svg"><defs
     id="defs2" /><sodipodi:namedview
     id="namedview2"
     pagecolor="#ffffff"
     bordercolor="#999999"
     borderopacity="1"
     inkscape:showpageshadow="0"
     inkscape:pageopacity="0"
     inkscape:pagecheckerboard="0"
     inkscape:deskcolor="#d1d1d1"
     inkscape:zoom="17.441967"
     inkscape:cx="-13.215252"
     inkscape:cy="5.5039663"
     inkscape:window-width="3440"
     inkscape:window-height="1381"
     inkscape:window-x="0"
     inkscape:window-y="27"
     inkscape:window-maximized="1"
     inkscape:current-layer="svg2" /><path
     d="M10 4H4c-1.11 0-2 .89-2 2v12c0 1.097.903 2 2 2h16c1.097 0 2-.903 2-2V8a2 2 0 0 0-2-2h-8l-2-2z"
     fill="#00acc1"
     fill-rule="nonzero"
     style="fill:#004fac;fill-opacity:1"
     id="path1" /><path
     d="M17.293 17.786a2.308 2.308 0 0 1-2.308-2.308 2.308 2.308 0 0 1 2.308-2.307 2.308 2.308 0 0 1 2.308 2.307 2.308 2.308 0 0 1-2.308 2.308m4.899-1.668c.026-.211.046-.422.046-.64 0-.217-.02-.435-.046-.659l1.391-1.075a.333.333 0 0 0 .08-.422l-1.32-2.28c-.079-.146-.257-.205-.402-.146l-1.641.66a4.779 4.779 0 0 0-1.115-.647l-.244-1.747a.333.333 0 0 0-.33-.277h-2.637a.333.333 0 0 0-.33.277l-.243 1.747a4.78 4.78 0 0 0-1.114.646l-1.642-.659a.324.324 0 0 0-.402.145l-1.319 2.281a.325.325 0 0 0 .08.422l1.39 1.075c-.026.224-.046.442-.046.66s.02.428.046.639l-1.39 1.094a.325.325 0 0 0-.08.422l1.319 2.282a.332.332 0 0 0 .402.145l1.642-.666c.342.264.698.488 1.114.653l.244 1.747a.333.333 0 0 0 .33.277h2.637a.333.333 0 0 0 .33-.277l.243-1.747a4.802 4.802 0 0 0 1.115-.653l1.641.666c.145.052.323 0 .403-.145l1.318-2.282a.333.333 0 0 0-.079-.422z"
     fill="#80deea"
     style="fill:#ffff00"
     id="path2" /></svg>
