<?xml version="1.0" encoding="UTF-8" standalone="no"?>
<svg
   clip-rule="evenodd"
   fill-rule="evenodd"
   stroke-linejoin="round"
   stroke-miterlimit="1.414"
   viewBox="0 0 24 24"
   xml:space="preserve"
   version="1.1"
   id="svg2"
   sodipodi:docname="folder-images-open.svg"
   inkscape:version="1.3 (0e150ed6c4, 2023-07-21)"
   xmlns:inkscape="http://www.inkscape.org/namespaces/inkscape"
   xmlns:sodipodi="http://sodipodi.sourceforge.net/DTD/sodipodi-0.dtd"
   xmlns="http://www.w3.org/2000/svg"
   xmlns:svg="http://www.w3.org/2000/svg"><defs
     id="defs2" /><sodipodi:namedview
     id="namedview2"
     pagecolor="#ffffff"
     bordercolor="#999999"
     borderopacity="1"
     inkscape:showpageshadow="0"
     inkscape:pageopacity="0"
     inkscape:pagecheckerboard="0"
     inkscape:deskcolor="#d1d1d1"
     inkscape:zoom="24.666667"
     inkscape:cx="0.18243243"
     inkscape:cy="10.054054"
     inkscape:window-width="3440"
     inkscape:window-height="1381"
     inkscape:window-x="0"
     inkscape:window-y="27"
     inkscape:window-maximized="1"
     inkscape:current-layer="svg2" /><path
     d="M19 20H4a2 2 0 0 1-2-2V6c0-1.11.89-2 2-2h6l2 2h7c1.097 0 2 .903 2 2H4v10l2.14-8h17.07l-2.28 8.5c-.23.87-1.01 1.5-1.93 1.5z"
     fill="#009688"
     fill-rule="nonzero"
     id="path1"
     style="fill:#004fac;fill-opacity:1" /><path
     d="M18.575 12.859h3.713l-3.713-3.713v3.713M13.85 8.134h5.4l4.05 4.05v8.1c0 .74-.61 1.35-1.35 1.35h-8.1a1.35 1.35 0 0 1-1.35-1.35v-10.8c0-.75.6-1.35 1.35-1.35m0 12.15h8.1v-5.4l-2.7 2.7-1.35-1.35-4.05 4.05m1.35-7.425c-.74 0-1.35.61-1.35 1.35s.61 1.35 1.35 1.35 1.35-.61 1.35-1.35-.61-1.35-1.35-1.35z"
     fill-rule="nonzero"
     fill="#b2dfdb"
     id="path2"
     style="fill:#ffff00" /></svg>
